# xmcd CD database file
#
# Track frame offsets:
#	150
#	23994
#	38638
#	52657
#	72281
#	98000
#	110586
#	125887
#	137121
#	152753
#	172510
#	189501
#	212351
#	228070
#
# Disc length: 3279 seconds
#
# Revision: 1
# Processed by: cddbd v1.5.2PL0 Copyright (c) Steve Scherf et al.
# Submitted via: CDex 1.51
#
DISCID=ac0ccd0e
DTITLE=Compay Segundo - 100th Birthday Celebration
DYEAR=2007
DGENRE=Salsa
TTITLE0=Saludo a Changó
TTITLE1=Fidelidad
TTITLE2=Amor de loca juventud
TTITLE3=Cazabe y macho
TTITLE4=Balcón de Santiago
TTITLE5=La pluma
TTITLE6=La ternera
TTITLE7=Oui parle français
TTITLE8=Morir de amor
TTITLE9=Viejos sones de Santiago
TTITLE10=Desvelo de amor
TTITLE11=Para Vigo me voy
TTITLE12=Es mejor vivir asi
TTITLE13=Versos para ti
EXTD=YEAR: 2007
EXTT0=
EXTT1=
EXTT2=
EXTT3=
EXTT4=
EXTT5=
EXTT6=
EXTT7=
EXTT8=
EXTT9=
EXTT10=
EXTT11=
EXTT12=
EXTT13=
PLAYORDER=
